<svg width="194" height="153" viewBox="0 0 194 153" fill="none" xmlns="http://www.w3.org/2000/svg">
<path fill-rule="evenodd" clip-rule="evenodd" d="M89.0177 7.20235C89.0477 7.16764 89.0819 7.12831 89.1202 7.08469C89.2842 6.8977 89.5225 6.63164 89.8219 6.31283C90.42 5.67587 91.265 4.82517 92.2506 3.97295C93.2346 3.12217 94.3692 2.26069 95.5469 1.60965C96.7186 0.961954 97.973 0.5 99.1863 0.5C100.4 0.5 101.654 0.961953 102.826 1.60965C104.003 2.26069 105.138 3.12217 106.122 3.97295C107.108 4.82517 107.953 5.67587 108.551 6.31283C108.85 6.63163 109.089 6.8977 109.252 7.08469C109.294 7.13232 109.331 7.17483 109.363 7.21179L118.75 7.59971L136.732 13.1482L153.903 21.0691L161.883 27.0055L161.895 27.014L168.701 31.7785L172.969 37.1658H193.5V46.0509H0.5V37.1658H24.5949L28.4609 31.7977L34.497 27.0084L43.6819 21.0674L59.2555 13.1464L71.2489 9.97441L85.623 7.20235L89.0177 7.20235ZM89.7498 8.20235L83.4716 10.9265L72.7425 14.8677L58.8996 21.144L47.844 29.7103L65.1617 26.5556L73.8423 18.3375L81.4567 13.9653L92.0529 8.20235H89.7498ZM94.1458 8.20235L81.9396 14.8412L74.4434 19.1455L66.7212 26.4563L81.0273 25.7641C81.0854 25.5559 81.1965 25.3397 81.3105 25.1434C81.6318 24.5904 82.1902 23.8496 82.8146 23.0631C83.2241 22.5474 83.6644 22.0088 84.0993 21.4767C85.0206 20.3495 85.918 19.2516 86.4484 18.4626L86.4761 18.4214L91.6998 13.2406L98.1343 8.20235L94.1458 8.20235ZM99.5568 8.35861L92.3624 13.9918L87.2502 19.062C86.6897 19.8877 85.7536 21.0332 84.8296 22.1639C84.4038 22.685 83.9805 23.2029 83.5978 23.6849C82.9701 24.4755 82.4552 25.1638 82.1752 25.6457C82.1587 25.6741 82.1433 25.7013 82.129 25.7273L114.463 25.35L105.178 13.5622L99.5568 8.35861ZM81.7106 26.7322L67.0504 27.4415L83.0284 37.1658H169.915L151.138 30.2683L131.735 27.5192L115.46 26.7318L115.479 26.3382L81.7106 26.7322ZM116.059 25.7596L130.771 26.4713L129.428 24.6067L122.755 19.1563L113.65 14.0523L113.646 14.0502L103.426 8.20235L100.86 8.20235L105.915 12.8817L116.059 25.7596ZM105.44 8.20235L114.139 13.18L114.143 13.1822L123.32 18.3267L130.162 23.9155L132.064 26.5557L149.425 29.0155L144.222 25.0695L137.097 20.7515L126.41 14.8626L114.111 10.5343L108.625 8.20235L105.44 8.20235ZM111.404 8.29698L114.473 9.6015L126.82 13.9468L137.598 19.8856L144.785 24.2412L151.503 29.3371L171.232 36.584L168.007 32.514L161.304 27.8206L161.298 27.8163L153.389 21.9335L136.374 14.0841L118.579 8.5935L111.404 8.29698ZM108.013 7.20235H90.36C90.4203 7.13699 90.484 7.06856 90.5508 6.99738C91.1328 6.37766 91.9524 5.55277 92.9047 4.7294C93.8586 3.90459 94.9351 3.09048 96.0307 2.48483C97.1324 1.87584 98.2133 1.5 99.1863 1.5C100.159 1.5 101.24 1.87584 102.342 2.48483C103.438 3.09048 104.514 3.90459 105.468 4.7294C106.42 5.55276 107.24 6.37765 107.822 6.99738C107.889 7.06856 107.952 7.13699 108.013 7.20235ZM81.1049 37.1658L65.3 27.5469L47.8924 30.718L66.6735 37.1658H81.1049ZM63.5939 37.1658L45.9036 31.0925L36.1395 33.804L27.5114 37.1658H63.5939ZM26.2447 36.5861L35.8233 32.854L45.6907 30.1137L58.3799 20.2816L72.3631 13.9417L83.0998 9.99775L87.2375 8.20235L85.7186 8.20235L71.4716 10.9499L59.614 14.086L44.1815 21.9352L35.0807 27.8219L29.1912 32.4947L26.2447 36.5861ZM1.5 38.1658V45.0509H192.5V38.1658H1.5Z" fill="#f5f5f5"/>
<path fill-rule="evenodd" clip-rule="evenodd" d="M94.0761 38.0323L81.7531 26.5989L82.4333 25.8658L94.7563 37.2993L94.0761 38.0323ZM102.821 37.2993L115.144 25.8658L115.825 26.5989L103.502 38.0323L102.821 37.2993ZM112.458 37.2291L131.539 26.5842L132.026 27.4575L112.946 38.1024L112.458 37.2291ZM130.031 37.1928L151.894 29.7019L152.218 30.6479L130.355 38.1388L130.031 37.1928Z" fill="#f5f5f5"/>
<path fill-rule="evenodd" clip-rule="evenodd" d="M191.115 45.5509V51.0705H191.014L191.014 51.1197L187.935 51.1215V62.7925H192.705V68.5235H1.29499V62.7925H10.8354V51.2288L3.68185 51.2332L3.67863 46.0021L4.67863 46.0015L4.68123 50.2326L190.115 50.1202V45.5509H191.115ZM11.8354 51.2282V62.7925H186.935V51.1221L182.767 51.1247V59.8499H171.432V51.1315L156.531 51.1406V59.8499H145.196V51.1474L130.295 51.1564V59.8499H118.96V51.1633L104.059 51.1723V59.8499H92.7236V51.1792L77.8229 51.1882V59.8499H66.4875V51.1951L51.5869 51.2041V59.8499H40.2515V51.211L25.3509 51.22V59.8499H14.0155V51.2269L11.8354 51.2282ZM15.0155 51.9648V58.8499H24.3509V51.9648H15.0155ZM41.2515 51.9648V58.8499H50.5869V51.9648H41.2515ZM67.4875 51.9648V58.8499H76.8229V51.9648H67.4875ZM93.7236 51.9648V58.8499H103.059V51.9648H93.7236ZM119.96 51.9648V58.8499H129.295V51.9648H119.96ZM146.196 51.9648V58.8499H155.531V51.9648H146.196ZM172.432 51.9648V58.8499H181.767V51.9648H172.432ZM2.29499 63.7925V67.5235H191.705V63.7925H2.29499Z" fill="#f5f5f5"/>
<path fill-rule="evenodd" clip-rule="evenodd" d="M187.435 129.239H4.18009V128.239H187.435V129.239ZM12.0279 130.604H17.7981V147.805L12.0279 143.989V130.604ZM13.0279 131.604V143.452L16.7981 145.945V131.604H13.0279ZM28.7236 130.604H34.4938V147.375H28.7236V130.604ZM29.7236 131.604V146.375H33.4938V131.604H29.7236ZM45.4192 130.604H51.1894V147.375H45.4192V130.604ZM46.4192 131.604V146.375H50.1894V131.604H46.4192ZM62.1149 130.604H67.8851V147.375H62.1149V130.604ZM63.1149 131.604V146.375H66.8851V131.604H63.1149ZM78.8105 130.604H84.5807V147.375H78.8105V130.604ZM79.8105 131.604V146.375H83.5807V131.604H79.8105ZM95.5062 130.604H101.276V147.375H95.5062V130.604ZM96.5062 131.604V146.375H100.276V131.604H96.5062ZM112.202 130.604H117.972V147.375H112.202V130.604ZM113.202 131.604V146.375H116.972V131.604H113.202ZM128.897 130.604H134.668V147.375H128.897V130.604ZM129.897 131.604V146.375H133.668V131.604H129.897ZM145.593 130.604H151.363V147.375H145.593V130.604ZM146.593 131.604V146.375H150.363V131.604H146.593ZM162.289 130.604H168.059V147.375H162.289V130.604ZM163.289 131.604V146.375H167.059V131.604H163.289ZM178.984 130.604H184.755V143.989L178.984 147.805V130.604ZM179.984 131.604V145.945L183.755 143.452V131.604H179.984ZM173.522 151.5V152.5H28.031V151.5H173.522Z" fill="#f5f5f5"/>
<path d="M34.6695 83.7149V89.1162H27.2758V111.392H20.4782V89.1162H13.0845V83.7149H34.6695Z" fill="#f5f5f5"/>
<path d="M57.5593 94.7541V100.353H40.0686V94.7541H57.5593Z" fill="#f5f5f5"/>
<path d="M84.0767 83.7149V89.1162H72.7077V94.9512H81.2146V100.195H72.7077V111.392H65.9102V83.7149H84.0767Z" fill="#f5f5f5"/>
<path d="M96.832 83.7149V111.392H90.0345V83.7149H96.832Z" fill="#f5f5f5"/>
<path d="M121.236 111.392L115.552 102.915L110.543 111.392H102.831L111.775 97.3167L102.633 83.7149H110.543L116.148 92.0731L121.077 83.7149H128.789L119.925 97.6716L129.147 111.392H121.236Z" fill="#f5f5f5"/>
<path d="M141.742 89.1162V94.7146H150.845V99.9188H141.742V105.99H152.038V111.392H134.944V83.7149H152.038V89.1162H141.742Z" fill="#f5f5f5"/>
<path d="M173.067 111.392L167.263 100.944H165.633V111.392H158.836V83.7149H170.244C172.444 83.7149 174.312 84.096 175.849 84.8582C177.413 85.6205 178.579 86.6718 179.348 88.0123C180.116 89.3265 180.5 90.7984 180.5 92.428C180.5 94.2678 179.97 95.9106 178.91 97.3562C177.877 98.8018 176.34 99.8268 174.299 100.431L180.739 111.392H173.067ZM165.633 96.1734H169.847C171.092 96.1734 172.02 95.8711 172.629 95.2666C173.266 94.6621 173.584 93.8079 173.584 92.7039C173.584 91.6526 173.266 90.8247 172.629 90.2201C172.02 89.6156 171.092 89.3133 169.847 89.3133H165.633V96.1734Z" fill="#f5f5f5"/>
<path fill-rule="evenodd" clip-rule="evenodd" d="M12.5845 83.2149H35.1695V89.6162H27.7758V111.892H19.9782V89.6162H12.5845V83.2149ZM13.5845 84.2149V88.6162H20.9782V110.892H26.7758V88.6162H34.1695V84.2149H13.5845ZM65.4102 83.2149H84.5767V89.6162H73.2077V94.4512H81.7146V100.695H73.2077V111.892H65.4102V83.2149ZM66.4102 84.2149V110.892H72.2077V99.6948H80.7146V95.4512H72.2077V88.6162H83.5767V84.2149H66.4102ZM89.5345 83.2149H97.332V111.892H89.5345V83.2149ZM90.5345 84.2149V110.892H96.332V84.2149H90.5345ZM101.694 83.2149H110.81L116.121 91.1349L120.792 83.2149H129.699L120.522 97.6638L130.085 111.892H120.97L115.579 103.853L110.828 111.892H101.921L111.178 97.3244L101.694 83.2149ZM103.571 84.2149L112.373 97.3091L103.742 110.892H110.258L115.525 101.978L121.503 110.892H128.208L119.327 97.6793L127.879 84.2149H121.363L116.175 93.0114L110.276 84.2149H103.571ZM134.444 83.2149H152.538V89.6162H142.242V94.2146H151.345V100.419H142.242V105.49H152.538V111.892H134.444V83.2149ZM135.444 84.2149V110.892H151.538V106.49H141.242V99.4188H150.345V95.2146H141.242V88.6162H151.538V84.2149H135.444ZM158.336 83.2149H170.244C172.499 83.2149 174.447 83.6053 176.07 84.4095C177.71 85.2095 178.956 86.325 179.78 87.7617C180.596 89.1574 181 90.7169 181 92.428C181 94.3698 180.439 96.1156 179.316 97.6486C178.313 99.0503 176.879 100.067 175.046 100.715L181.613 111.892H172.773L166.969 101.444H166.133V111.892H158.336V83.2149ZM159.336 84.2149V110.892H165.133V100.444H167.557L173.361 110.892H179.865L173.544 100.134L174.157 99.9519C176.113 99.3726 177.547 98.4035 178.504 97.0654L178.507 97.0605C179.502 95.703 180 94.1645 180 92.428C180 90.8806 179.636 89.4969 178.916 88.2647L178.914 88.261C178.201 87.0181 177.116 86.0317 175.63 85.3077L175.627 85.3062C174.176 84.5865 172.388 84.2149 170.244 84.2149H159.336ZM165.133 88.8133H169.847C171.163 88.8133 172.24 89.1318 172.978 89.8613C173.73 90.5783 174.084 91.5468 174.084 92.7039C174.084 93.9053 173.735 94.9037 172.978 95.6254C172.24 96.3549 171.163 96.6734 169.847 96.6734H165.133V88.8133ZM166.133 89.8133V95.6734H169.847C171.02 95.6734 171.797 95.3884 172.277 94.9116L172.285 94.9042C172.797 94.4171 173.084 93.7084 173.084 92.7039C173.084 91.7603 172.802 91.0742 172.285 90.5825L172.277 90.5752C171.797 90.0984 171.02 89.8133 169.847 89.8133H166.133ZM39.5686 94.2541H58.0593V100.853H39.5686V94.2541ZM40.5686 95.2541V99.8525H57.0593V95.2541H40.5686Z" fill="#f5f5f5"/>
</svg>
